<svg width="206" height="60" viewBox="0 0 206 60" xmlns="http://www.w3.org/2000/svg"><path d="M89.62 9.55a4.96 4.96 0 0 0-5.1 5c0 2.86 1.78 4.91 5.14 4.91a4.97 4.97 0 0 0 4.22-1.97l-1.77-1.16a3.17 3.17 0 0 1-2.47 1.1c-1.44 0-2.31-.75-2.56-2.17h7.48l.02-.8a4.79 4.79 0 0 0-4.96-4.91zm-2.54 4.04c.31-1.44 1.22-2.1 2.52-2.1 1.37 0 2.25.7 2.4 2.1h-4.92zm41.35-4.04a4.96 4.96 0 0 0-5.1 5c0 2.86 1.77 4.92 5.14 4.92a4.97 4.97 0 0 0 4.21-1.98l-1.76-1.16a3.18 3.18 0 0 1-2.48 1.1c-1.44 0-2.3-.75-2.56-2.17h7.48l.02-.8a4.79 4.79 0 0 0-4.95-4.91zm-2.55 4.04c.31-1.44 1.22-2.09 2.52-2.09 1.37 0 2.25.7 2.4 2.1h-4.92zm67.26 14.85a4.96 4.96 0 0 0-5.1 5c0 2.86 1.78 4.9 5.15 4.9a4.97 4.97 0 0 0 4.21-1.96l-1.77-1.17a3.17 3.17 0 0 1-2.47 1.1c-1.44 0-2.3-.74-2.56-2.17h7.48l.02-.79a4.79 4.79 0 0 0-4.96-4.91zm-2.54 4.04c.31-1.44 1.22-2.1 2.52-2.1 1.37 0 2.25.7 2.4 2.1h-4.92zm-80.94-4.05c-1.15 0-2.4.51-3.07 1.43V23.8l-2.4 1.22v13h2.4V33.4c0-2.2 1.26-2.86 2.43-2.86 1.1 0 1.97.48 1.97 2.07v5.42h2.4v-5.7c0-2.87-1.7-3.89-3.73-3.89zm56.54 5.12c0-2.21 1.26-2.86 2.44-2.86 1.1 0 1.96.49 1.96 2.07v5.26h2.4v-5.54c0-2.87-1.7-3.88-3.72-3.88-1.16 0-2.4.5-3.08 1.42v-1.26h-2.4v9.26h2.4v-4.47zm-64.32-9.75L99.55 25v13.02h2.33V23.8zm-6.97 14.22h2.33v-9.59l-2.33 1.18v8.41zm1.18-10.97c.82 0 1.48-.65 1.48-1.44 0-.83-.66-1.46-1.48-1.46-.83 0-1.51.63-1.51 1.46 0 .8.68 1.44 1.5 1.44zm79 10.97h2.33v-9.59l-2.34 1.18v8.41zm1.17-10.97c.83 0 1.49-.65 1.49-1.44 0-.83-.66-1.46-1.49-1.46-.82 0-1.5.63-1.5 1.46 0 .8.68 1.44 1.5 1.44zm25.98 3.2v-1.5h-2.42v9.27h2.42v-4.36c0-1.67.93-2.77 2.02-2.77.54 0 .97.2.97.2l.52-2.33s-.56-.16-1.08-.16c-1.42 0-1.96.79-2.43 1.64zm-72.2 0v-1.5h-2.41v9.27h2.42v-4.36c0-1.67.93-2.77 2.02-2.77.53 0 .97.2.97.2l.52-2.33s-.56-.16-1.08-.16c-1.42 0-1.96.79-2.43 1.64zm7.48-18.9V9.89h-2.42v9.26h2.42v-4.37c0-1.66.93-2.76 2.02-2.76.54 0 .97.2.97.2l.52-2.33s-.56-.17-1.08-.17c-1.42 0-1.96.8-2.43 1.65zm-31.73-6.43l-2.33 1.2v13.02h2.33V4.92zm-27.53 12.2h-2.84v-4h2.72c1.72 0 2.62.66 2.62 2.02 0 1.2-.68 1.99-2.5 1.99zM75.42 7.6h2.43c1.65 0 2.36.67 2.36 1.73 0 1.15-.8 1.83-2.25 1.83h-2.54V7.6zm5.32 4.3c1.14-.3 1.8-1.62 1.8-2.8 0-3.23-3.08-3.51-5.4-3.51H73v13.55h5.37c2.95 0 4.8-1.2 4.8-3.92 0-1.77-.8-2.9-2.43-3.31zm34.16 2.77c0-2.21 1.26-2.87 2.43-2.87 1.1 0 1.97.5 1.97 2.08v5.26h2.4V13.6c0-2.86-1.7-3.88-3.72-3.88-1.16 0-2.4.51-3.08 1.43V9.88h-2.4v9.26h2.4v-4.47zm-6.92 4.47h2.33V9.55l-2.33 1.18v8.41zm1.18-10.97c.82 0 1.48-.65 1.48-1.44 0-.84-.66-1.47-1.48-1.47-.83 0-1.51.63-1.51 1.47 0 .79.68 1.44 1.5 1.44zm-10.4 3.19V9.88h-2.43v9.26h2.42v-4.37c0-1.66.93-2.76 2.02-2.76.54 0 .97.2.97.2l.52-2.33s-.56-.17-1.07-.17c-1.43 0-1.96.8-2.44 1.65zM76.98 30.83h-1.57v-4.35h1.71c2.23 0 2.79.84 2.79 2.12 0 1.3-.54 2.23-2.93 2.23zm-.58-6.36H73v13.55h2.42v-5.18h1.42c3.6 0 5.53-1.1 5.53-4.22 0-3.3-2.16-4.15-5.96-4.15zm43.95 11.6c-1.73 0-2.91-.97-2.91-2.74 0-1.6 1.13-2.76 2.79-2.76 1.55 0 2.78 1.01 2.78 2.72 0 1.7-1.21 2.78-2.66 2.78zm2.66-6.21s-1.05-1.26-3.24-1.26a4.73 4.73 0 0 0-4.77 4.8c0 2.78 1.8 4.79 4.88 4.79 1.17 0 2.5-.45 3.13-1.22v1.05h2.4v-9.26h-2.4v1.1zm-33.91-1.43c-1.16 0-2.4.51-3.08 1.43V23.8l-2.4 1.22v13h2.4V33.4c0-2.2 1.26-2.86 2.44-2.86 1.1 0 1.96.48 1.96 2.07v5.42h2.4v-5.7c0-2.87-1.7-3.89-3.72-3.89zm98.6.33h-2.75l-2.94 3.72V23.8l-2.41 1.2v13.02h2.41v-4.26l2.97 4.26h2.96l-3.7-5.06 3.45-4.2zm-31 7.58a2.89 2.89 0 0 1-2.96-2.95 2.89 2.89 0 0 1 2.95-2.94c1.72 0 3 1.3 3 2.94 0 1.65-1.2 2.95-3 2.95zm0-7.9c-3 0-5.44 2.13-5.44 4.95 0 2.95 2.42 4.96 5.43 4.96 3.06 0 5.48-2.11 5.48-4.96 0-2.92-2.46-4.95-5.48-4.95zm-10.5.16c-1.17 0-2.43.44-3.17 1.34-.42-.9-1.66-1.34-2.8-1.34-1.09 0-2.39.34-3.11 1.3v-1.14h-2.38v9.26h2.4V33.4c0-1.68.7-2.72 2.23-2.72 1.05 0 1.67.57 1.67 1.77v5.58h2.4v-4.6c0-1.76.74-2.73 2.17-2.73 1.11 0 1.73.57 1.73 1.79v5.54h2.4v-5.79c0-2.47-1.08-3.63-3.54-3.63zm54.41 26h1.32V43.1l-1.32.67V54.6zm3.3 0h1.32V43.1l-1.32.67V54.6zm-9.34-1c-1.64 0-2.86-1.11-2.86-2.81a2.76 2.76 0 0 1 2.86-2.82c1.63 0 2.83 1.1 2.83 2.8a2.7 2.7 0 0 1-2.83 2.83zm2.8-5.45s-.88-1.3-2.99-1.3a3.98 3.98 0 0 0-4.03 3.97c0 2.41 1.7 3.9 4.05 3.9 1.77 0 2.8-1.08 2.97-1.3v1.18h1.3v-7.63h-1.3v1.18zm-22.64 5.45c-.77 0-.84-.47-.84-1.5V48.1h1.56v-1.12h-1.56v-2.56l-1.32.65v1.91h-1.19v1.12h1.19v4.2c0 1.62.46 2.48 2 2.48.42 0 .77-.07 1.32-.25l-.5-1.05c-.23.07-.46.13-.66.13zm-77.54 1h1.32v-7.86l-1.32.65v7.21zm.63-10.72a.84.84 0 0 0-.86.87c0 .45.4.82.86.82.5 0 .88-.37.88-.82 0-.51-.38-.87-.88-.87zm5.06 9.72c-.77 0-.84-.47-.84-1.5V48.1h1.56v-1.12h-1.56v-2.56l-1.32.65v1.91h-1.18v1.12h1.18v4.2c0 1.62.46 2.48 2 2.48.42 0 .78-.07 1.33-.25l-.52-1.05c-.22.07-.44.13-.65.13zm11.54 1h1.33V43.1l-1.33.67V54.6zm-6.03-1c-1.65 0-2.87-1.11-2.87-2.81a2.76 2.76 0 0 1 2.87-2.82c1.63 0 2.83 1.1 2.83 2.8a2.71 2.71 0 0 1-2.83 2.83zm2.8-5.45s-.88-1.3-3-1.3a3.98 3.98 0 0 0-4.02 3.97c0 2.41 1.7 3.9 4.04 3.9 1.77 0 2.8-1.08 2.97-1.3v1.18h1.3v-7.63h-1.3v1.18zm42.55 5.5a2.76 2.76 0 0 1-2.86-2.83 2.83 2.83 0 0 1 2.9-2.92c.72 0 1.4.2 2.04.6l.51-1.1c-.84-.51-1.7-.66-2.59-.66-2.47 0-4.21 1.73-4.21 4.1 0 2.34 1.68 4 4.08 4 1.11 0 2.02-.22 2.8-.78l-.52-1.13c-.82.54-1.48.73-2.15.73zm14.16-5.43v-1.25h-1.32v7.63h1.32v-4c0-1.45.72-2.45 1.85-2.45.38 0 .7.16.7.16l.35-1.32s-.38-.14-.88-.14c-.84 0-1.6.4-2.02 1.37zm-32.5 5.49a2.82 2.82 0 0 1-2.9-2.92c0-1.66 1.2-2.92 2.9-2.92s2.9 1.26 2.9 2.92a2.8 2.8 0 0 1-2.9 2.92zm0-6.97c-2.46 0-4.26 1.72-4.26 4.05 0 2.53 1.8 4.05 4.25 4.05 2.56 0 4.25-1.7 4.25-4.05 0-2.35-1.76-4.05-4.25-4.05zm23.12 3.46c.27-1.56 1.32-2.37 2.7-2.37 1.47 0 2.34.86 2.41 2.37h-5.11zm2.64-3.46c-2.45 0-4.03 1.89-4.03 4.11.05 2.5 1.52 3.99 4.24 3.99 2.53 0 3.58-1.52 3.58-1.52l-.86-.93s-1.04 1.33-2.72 1.33c-1.55 0-2.68-.82-2.85-2.51h6.52l.01-.57c0-2.28-1.37-3.9-3.89-3.9zm-16.06.11c-1.08 0-2.04.46-2.6 1.32v-1.2h-1.33v7.63h1.32v-3.86c0-1.7 1.03-2.74 2.44-2.74 1.23 0 1.85.6 1.85 2.01v4.66h1.3v-4.64c0-2.16-.92-3.18-2.98-3.18zm42.11 1.2h-6.05v-4.7h-1.34V54.6h1.34v-5.4h6.05v5.4h1.38V43.34h-1.38v4.71zm-60.91-3.76c1.76 0 2.8.77 3.39 1.28l.62-1.23a6.25 6.25 0 0 0-3.98-1.23 5.84 5.84 0 0 0-5.99 5.97c0 3.51 2.56 5.76 5.89 5.76 1.66 0 2.93-.42 4.03-1.22l-.6-1.21a5.14 5.14 0 0 1-3.31 1.24 4.46 4.46 0 0 1-4.6-4.58c0-2.7 1.78-4.78 4.55-4.78zM84.1 54.6h1.32v-7.86l-1.32.65v7.21zm.64-10.72a.84.84 0 0 0-.86.87c0 .45.4.82.86.82.5 0 .87-.37.87-.82 0-.51-.38-.87-.87-.87zm6.32 9.84c-1.6 0-2.8-1.16-2.8-2.9a2.8 2.8 0 0 1 2.87-2.85c1.65 0 2.83 1.04 2.83 2.78a2.84 2.84 0 0 1-2.9 2.97zm2.85-6.75l.02 1.2c-.41-.7-1.58-1.32-2.92-1.32-2.21 0-4.1 1.7-4.1 4.02 0 2.31 1.56 3.97 3.96 3.97 1.3 0 2.56-.46 3.06-1.44v1.27c0 1.75-1.22 2.66-2.8 2.66-1.3 0-2.48-.55-3.05-1.62l-1.17.58c.72 1.45 2.39 2.16 4.12 2.16 2.62 0 4.2-1.29 4.2-3.83l-.02-7.65h-1.3zm-18 6.43h-1.57v-8.84h1.63c3.69 0 5.16 1.69 5.16 4.35 0 2.72-1.66 4.5-5.21 4.5zm-.13-10.06c4.68 0 6.7 2.11 6.7 5.54 0 3.32-1.96 5.72-6.75 5.72h-2.73V43.34h2.78zM28.6 0l.07.04L61.9 19.08l-.02.07-7.98 36.37h-.08L15.65 59.5l-.03-.06L0 25.54l.06-.06L28.59 0zm-7.96 8.85l26.17 3.07L28.76 1.6l-8.13 7.26zM7.07 36.87l9.47 8.7 2.13-24.7.08-.02 23.73-6.4.04.05 8.88 10.62-2.2-11.62-29.53-3.46-12.6 26.83zm-5.49-11l4.57 9.9 11.32-24.1-15.89 14.2zm51.54 1.3l4.5 5.38 2.81-12.82-9.8-5.61 2.49 13.05zM17.79 46.31l18.2 6.6 11.78-5.84 6.14-8.78-2-10.55L42 15.92 19.9 21.88 17.79 46.3zM53.62 29.8l1.33 7 2.06-2.94-3.39-4.06zm1.67 8.78l.46 2.46 1-4.55-1.46 2.1zm-47.53.69l8.7 18.85 10.62-1.1L7.76 39.26zm46.49.81l-4.05 5.79 4.7-2.33-.65-3.46zm-5.6 8l-5.03 7.2 9.22-.95 2.04-9.34-6.23 3.1zm-29.12.24l9.03 8.28 5.83-2.9-14.86-5.38zm18.15 5.2l4.45 1.62 4.1-5.85-8.55 4.23zm-1.6.8l-4.48 2.22 8.24-.86-3.76-1.36z" fill="#FFF" fill-rule="evenodd"/></svg>